<svg version="1.1" id="Layer_1" xmlns="http://www.w3.org/2000/svg" xmlns:xlink="http://www.w3.org/1999/xlink" x="0px" y="0px"
	 width="100%" viewBox="0 0 1024 1024" enable-background="new 0 0 1024 1024" xml:space="preserve">
<path fill="#142B3F" opacity="1.000000" stroke="none"
	d="
M349.359985,703.381592
	C352.623566,698.227234 356.394836,693.793030 358.318481,687.737305
	C317.418091,702.994141 277.639191,720.591431 236.927704,736.666626
	C266.849640,694.442078 298.958374,654.001099 329.142395,611.170532
	C326.031311,611.098633 324.658875,612.641296 323.213928,613.789673
	C314.476044,620.733826 305.394684,627.315674 297.213043,634.868774
	C290.083740,641.450317 282.082153,644.151550 272.678772,645.323975
	C247.421951,648.473083 222.253098,652.328247 197.051758,655.920044
	C195.563995,656.132080 194.098694,656.457458 192.424988,655.683716
	C192.235016,652.969543 194.576996,651.822266 196.098831,650.318604
	C236.042694,610.852722 276.042297,571.443115 315.991211,531.982239
	C322.152130,525.896606 328.132202,519.626892 334.149109,513.397034
	C335.244812,512.262573 336.844025,511.298370 336.335754,508.889282
	C333.523926,508.952759 331.511230,510.854309 329.375122,512.144226
	C311.692474,522.822876 294.063385,533.590515 276.461029,544.401123
	C274.373444,545.683289 272.544891,546.430359 269.965424,545.610413
	C237.595795,535.321289 205.187714,525.153137 172.808914,514.892700
	C171.460388,514.465393 169.787735,514.404358 168.289093,511.773407
	C256.893951,483.233398 345.306671,454.901154 431.452301,420.096863
	C417.391754,420.808472 403.812195,424.158173 390.101532,426.635345
	C372.084991,429.890411 354.127655,433.479279 336.172974,437.065338
	C332.306610,437.837616 329.196991,437.079956 325.919312,434.853394
	C287.328857,408.638580 248.652008,382.550934 210.022797,356.393066
	C208.621429,355.444153 206.546265,354.921448 206.617065,351.972198
	C215.082901,352.970459 223.448181,353.837616 231.779190,354.959351
	C273.172974,360.532837 314.601196,365.874664 355.931671,371.886658
	C387.878601,376.533661 419.862122,380.956543 451.726807,386.198517
	C461.866089,387.866455 472.289337,387.864716 482.591827,388.470703
	C496.722229,389.301849 510.860535,390.000641 524.997925,390.706940
	C526.566162,390.785278 528.150391,390.542572 530.526550,390.401215
	C528.085205,388.070496 525.832581,387.670074 523.622009,387.118896
	C491.806641,379.186310 460.009308,371.180389 428.166412,363.360046
	C424.132355,362.369354 421.562042,360.459473 419.478607,356.804993
	C401.656006,325.542938 383.627716,294.398224 365.703278,263.194061
	C364.261353,260.683929 362.385284,258.301147 361.953064,254.140762
	C371.593414,257.785004 380.693237,260.812927 389.458893,264.611847
	C422.503662,278.932922 453.913239,296.563965 486.065552,312.695221
	C521.380615,330.413269 555.127502,350.973785 589.929443,369.616058
	C593.374695,371.461609 596.695190,373.732910 601.331604,374.615356
	C600.150452,371.968628 598.272583,370.924957 596.624695,369.709869
	C580.129700,357.547546 563.624329,345.399200 547.104736,333.270355
	C545.458191,332.061462 544.272522,330.662628 543.409607,328.725861
	C529.851746,298.297821 516.259766,267.885315 503.441528,237.134995
	C502.840057,235.692139 501.553040,234.309036 502.529053,232.499847
	C504.519745,232.336685 505.526550,233.902344 506.759430,234.884232
	C552.512207,271.322052 597.648438,308.509735 642.307739,346.279633
	C664.318359,364.894806 686.417847,383.405731 708.587463,401.831085
	C711.700073,404.417999 712.982178,406.861389 712.464722,411.137085
	C709.906067,432.278870 707.773987,453.472321 705.497131,474.648163
	C705.408142,475.475403 705.308105,476.310699 705.331848,477.138824
	C705.373291,478.582397 704.717712,480.317261 706.243225,481.295166
	C708.021118,482.434998 709.413879,481.043427 710.717102,480.089478
	C720.531677,472.905426 730.302856,465.662109 740.113953,458.473328
	C749.119080,451.875153 758.146179,445.306732 767.194214,438.767609
	C768.369873,437.917877 769.408997,436.696899 771.147522,436.734070
	C772.784485,437.717346 772.225708,439.388885 772.147095,440.750885
	C771.062805,459.528229 769.987183,478.306976 768.683289,497.069702
	C768.475098,500.066162 768.880676,502.589325 770.360596,505.147675
	C787.545532,534.854797 804.706665,564.575745 821.795288,594.338318
	C823.122009,596.648987 824.820984,598.127686 827.224915,599.165894
	C839.764404,604.581543 852.267700,610.081421 864.768372,615.586548
	C867.171936,616.645020 869.818298,617.299500 872.157837,619.797546
	C869.381775,624.361816 866.638367,629.054260 863.719116,633.634705
	C857.540955,643.328308 851.197388,652.917236 845.085022,662.651672
	C843.317322,665.466980 841.047791,666.702759 837.830200,667.146973
	C795.305725,673.018127 752.794739,678.986389 710.276672,684.903687
	C703.850708,685.797974 697.417114,686.663635 690.965942,687.341919
	C686.453430,687.816345 682.886658,689.383667 679.927612,693.134644
	C675.395386,698.879883 670.403137,704.281006 665.370117,709.605103
	C662.619751,712.514465 662.759460,714.605774 665.428711,717.593140
	C678.195129,731.880920 690.753845,746.354309 703.352539,760.791382
	C704.523071,762.132751 706.086487,763.262512 706.469238,765.735718
	C703.924683,766.882935 701.125671,766.860901 698.417236,766.865784
	C673.086060,766.911316 647.754700,766.887207 622.423401,766.880920
	C620.058533,766.880371 617.825195,766.677673 616.000244,764.785095
	C599.113220,747.272766 582.184937,729.800354 565.287170,712.298340
	C564.731384,711.722717 564.373596,710.955811 563.970764,710.349182
	C564.502075,708.111206 566.301758,707.415344 567.830688,706.500244
	C593.706055,691.012024 619.552795,675.474976 645.518494,660.139465
	C649.392456,657.851440 651.044617,655.314270 651.027344,650.654480
	C650.856445,604.325195 650.846558,557.994690 651.050293,511.665680
	C651.073486,506.390442 649.607849,503.159363 644.980408,500.402008
	C605.049194,476.607727 565.213989,452.651337 525.462280,428.558319
	C521.446411,426.124390 518.355774,426.209503 514.487732,428.557922
	C477.033813,451.298065 439.767426,474.368927 401.831024,496.277893
	C391.673096,502.144287 388.790344,508.603607 388.971252,519.846619
	C389.668396,563.165527 389.334656,606.502686 389.145050,649.831970
	C389.123291,654.805969 390.706451,657.673096 394.970734,660.194397
	C417.055115,673.252075 438.973297,686.591125 460.929901,699.864441
	C463.590698,701.473022 466.133667,703.276550 469.772888,705.676697
	C448.562042,717.112183 428.339478,728.014832 406.674438,739.695190
	C416.362183,748.526794 424.922699,756.330750 433.483215,764.134705
	C433.088928,765.014282 432.694641,765.893860 432.300323,766.773499
	C390.962158,767.102722 349.622223,766.851501 308.283417,766.981018
	C308.059814,766.402039 307.836182,765.823059 307.612549,765.244080
	C321.460449,744.722473 335.308319,724.200928 349.359985,703.381592
M751.910156,596.580872
	C758.974304,597.574158 766.033997,598.600708 773.104980,599.542786
	C775.604248,599.875671 778.112915,600.166321 779.308838,596.979919
	C780.535217,593.712524 778.389893,592.540588 776.164124,591.205566
	C762.352417,582.921082 748.571777,574.584595 734.753906,566.310364
	C733.398010,565.498413 732.103149,564.189087 730.250732,564.865173
	C728.527588,566.720154 729.888367,568.341919 730.641052,569.899780
	C733.530334,575.879822 736.849121,581.678162 739.349915,587.812439
	C741.596313,593.322693 744.928650,596.575195 751.910156,596.580872
z"/>
<path fill="#D95E20" opacity="1.000000" stroke="none"
	d="
M512.765869,707.306152
	C480.259613,687.589050 448.122681,667.970581 415.834534,648.604248
	C411.432037,645.963623 409.766388,643.041809 409.791321,637.870911
	C409.977051,599.377075 409.913086,560.881348 409.718048,522.387329
	C409.695007,517.838501 411.095184,515.150879 415.056671,512.789124
	C448.541382,492.825867 481.934143,472.707306 515.250122,452.463623
	C518.910889,450.239227 521.588013,450.343658 525.201843,452.544739
	C558.637268,472.909515 592.159058,493.133179 625.743225,513.251831
	C628.988098,515.195679 630.385071,517.281494 630.372498,521.145874
	C630.243103,560.806885 630.251038,600.468689 630.364746,640.129822
	C630.375244,643.777344 629.066833,645.899170 626.016296,647.731445
	C591.743896,668.317566 557.488525,688.933289 523.357483,709.752319
	C518.678040,712.606689 516.364990,708.814026 512.765869,707.306152
z"/>
</svg>
